<svg xmlns="http://www.w3.org/2000/svg" width="430" height="430" style="width:100%;height:100%;transform:translate3d(0,0,0);content-visibility:visible" viewBox="0 0 430 430"><defs><clipPath id="a"><path d="M0 0h430v430H0z"/></clipPath><clipPath id="c"><path d="M0 0h430v430H0z"/></clipPath><clipPath id="b"><path d="M0 0h430v430H0z"/></clipPath></defs><g clip-path="url(#a)"><g clip-path="url(#b)" style="display:block"><g fill="#646E78" style="display:block"><path d="M305.55 48.153c-.88-2.1-3.78-2.28-4.92-.31l-80.575 139.523c-2.051 3.55-12.07 20.158-12.855 21.514l26.668 39.523c33.05-57.37 75.532-130.85 75.532-130.85a58.96 58.96 0 0 0 3.32-52.29z" class="secondary"/><path d="M42.83-36.141a58.96 58.96 0 0 0 3.32-52.29l-2.631-6.279-84.84 146.91c-1.362 2.358-5.726 9.634-9.415 15.78l18.037 26.73C.351 37.34 42.83-36.141 42.83-36.141" class="secondary" opacity=".5" style="mix-blend-mode:multiply" transform="translate(266.57 153.692)"/></g><g fill="#F24C00" style="display:block"><path d="M97.383 360.135c30.334 17.514 69.123 7.12 86.636-23.213.607-1.052 22.678-39.762 48.352-84.23 13.799-23.9-23.309-45.325-37.57-20.626l-18.083 31.322c-7.005-7.975-16.095-14.474-27.386-18.267-26.493-8.9-56.35.846-72.27 23.816-21.413 30.893-11.557 72.793 20.32 91.198m4.73-55.303c0-14.856 12.044-26.9 26.901-26.9s26.9 12.045 26.9 26.9c0 14.857-12.045 26.9-26.9 26.9-14.858 0-26.9-12.044-26.9-26.9" class="tertiary"/><path fill-opacity=".5" d="M-117.615 143.636c30.334 17.514 69.123 7.12 86.636-23.214.607-1.052 22.677-39.762 48.35-84.23C31.17 12.291-5.938-9.133-20.198 15.566l-18.083 31.322c-7.005-7.975-16.095-14.473-27.386-18.266-26.493-8.899-56.35.846-72.27 23.817-21.412 30.893-11.556 72.792 20.322 91.197m4.73-55.303c0-14.856 12.043-26.9 26.9-26.9s26.9 12.044 26.9 26.9-12.044 26.9-26.9 26.9c-14.857 0-26.9-12.044-26.9-26.9" class="tertiary" style="mix-blend-mode:multiply" transform="translate(215 216.5)"/></g><path fill="none" stroke="#121331" stroke-width="7" d="M24.362 30.25c0-76-.022-230.373-.022-230.373 0-2.473-2.831-3.877-4.799-2.38L3.492-190.297a64.1 64.1 0 0 0-25.297 51.022s-.414 88.261-.431 164.664" class="primary" style="display:block" transform="scale(-.92 .92)rotate(-30.001 319.223 581.668)"/><g style="display:block"><path fill="#646E78" d="M129.567 49.254c-1.139-1.97-4.04-1.787-4.919.311l-4.62 11.021-2.551 6.087a58.98 58.98 0 0 0 3.315 52.288s55.993 96.256 89.048 153.625l21.531-19.779 9.472-8.519c-34.96-60.553-111.276-195.034-111.276-195.034" class="secondary"/><path fill="#EBE6EF" d="M240.843 244.288c-34.96-60.552-111.276-195.034-111.276-195.034-1.139-1.97-4.04-1.787-4.919.311l-4.201 10.024c14.612 25.194 77.98 136.183 110.924 193.218z" class="quaternary"/></g><path fill="none" stroke="#121331" stroke-width="7" d="M24.362 30.25c0-76-.022-230.373-.022-230.373 0-2.473-2.831-3.877-4.799-2.38L3.492-190.297a64.1 64.1 0 0 0-25.297 51.022s-.431 91.858-.431 169.273c0 31.252 46.598 30.752 46.598.252z" class="primary" style="display:block" transform="rotate(-30.001 508.685 -267.235)scale(.92)"/><g fill="none" stroke="#121331" stroke-width="6.44" style="display:block"><path d="M105.722 290.966c-7.428 12.864-3.02 29.312 9.844 36.74 12.864 7.427 29.312 3.02 36.74-9.844 7.427-12.865 3.02-29.314-9.844-36.741s-29.313-3.02-36.74 9.845z" class="primary"/><path d="M149.333 244.703c11.291 3.793 20.38 10.291 27.385 18.266l18.084-31.321c14.26-24.7 51.368-3.275 37.569 20.626-25.675 44.467-47.744 83.178-48.352 84.23-17.513 30.333-56.301 40.726-86.636 23.212-31.878-18.406-41.732-60.305-20.32-91.197 15.92-22.97 45.778-32.716 72.27-23.816z" class="primary"/></g><path fill="#F24C00" d="M135.353 52.439c-15.92-22.971-45.777-32.716-72.27-23.817-11.291 3.793-20.381 10.291-27.386 18.266L17.614 15.566C10.744 3.667-1.538 1.857-10.767 6.487c-9.928 4.981-16.338 17.319-9.187 29.705 25.673 44.468 47.742 83.178 48.349 84.23 17.513 30.334 56.302 40.728 86.636 23.214 31.878-18.405 41.734-60.304 20.322-91.197m-51.951 62.794c-14.856 0-26.9-12.044-26.9-26.9s12.044-26.9 26.9-26.9c14.857 0 26.9 12.044 26.9 26.9s-12.043 26.9-26.9 26.9" class="tertiary" style="display:block" transform="translate(217.687 216.357)"/><g fill="none" stroke="#121331" stroke-width="6.44" style="display:block"><path d="M324.278 290.966c7.428 12.864 3.02 29.312-9.844 36.74-12.864 7.427-29.312 3.02-36.74-9.844-7.427-12.865-3.02-29.314 9.844-36.741s29.313-3.02 36.74 9.845z" class="primary"/><path d="M280.667 244.703c-11.291 3.793-20.38 10.291-27.385 18.266l-18.084-31.321c-14.26-24.7-51.368-3.275-37.569 20.626 25.675 44.467 47.744 83.178 48.352 84.23 17.513 30.333 56.301 40.726 86.636 23.212 31.878-18.406 41.732-60.305 20.32-91.197-15.92-22.97-45.778-32.716-72.27-23.816z" class="primary"/></g></g><g clip-path="url(#c)" style="display:none"><g style="display:none"><path class="secondary"/><path class="secondary" style="mix-blend-mode:multiply"/></g><g style="display:none"><path class="tertiary"/><path class="tertiary" style="mix-blend-mode:multiply"/></g><g fill="none" style="display:none"><path class="primary"/><path class="primary"/><path class="primary"/></g><g style="display:none"><path class="secondary"/><path class="quaternary"/></g><path class="tertiary" style="display:none"/><g fill="none" style="display:none"><path class="primary"/><path class="primary"/><path class="primary"/></g></g></g></svg>